<?xml version="1.0" encoding="UTF-8"?>
<svg id="Layer_2" data-name="Layer 2" xmlns="http://www.w3.org/2000/svg" viewBox="0 0 275.73 296.08">
  <defs>
    <style>
      .cls-1 {
        isolation: isolate;
      }

      .cls-2 {
        fill: #fff;
        stroke-width: 0px;
      }
    </style>
  </defs>
  <g id="Layer_2-2" data-name="Layer 2">
    <g id="Layer_1-2" data-name="Layer 1-2">
      <g class="cls-1">
        <g class="cls-1">
          <path class="cls-2" d="M147.69,29.38c-1.51-.14-2.82-.56-3.91-1.26-1.09-.7-1.96-1.59-2.59-2.67l2.71-2.08c.41.75.96,1.35,1.65,1.79s1.47.71,2.35.79c.88.08,1.68-.04,2.4-.35.72-.31,1.3-.83,1.77-1.53.46-.71.74-1.6.84-2.69l1.7-18.24,3.56.33-1.69,18.05c-.16,1.74-.65,3.22-1.46,4.44-.81,1.22-1.85,2.13-3.12,2.72-1.26.59-2.67.82-4.2.67Z"/>
        </g>
      </g>
      <g class="cls-1">
        <g class="cls-1">
          <path class="cls-2" d="M169.77,33.3c-1.71-.47-3.14-1.3-4.28-2.49-1.14-1.18-1.93-2.58-2.35-4.18-.42-1.6-.4-3.26.08-4.97.47-1.68,1.29-3.09,2.47-4.22,1.18-1.13,2.57-1.91,4.16-2.34,1.59-.43,3.24-.4,4.95.07,1.68.47,3.11,1.29,4.27,2.46,1.16,1.18,1.95,2.56,2.38,4.15.43,1.59.41,3.23-.06,4.91-.47,1.71-1.3,3.14-2.49,4.3-1.19,1.16-2.58,1.95-4.19,2.37-1.6.42-3.25.4-4.93-.07ZM170.66,30.12c1.1.3,2.15.32,3.14.04,1-.28,1.86-.79,2.6-1.55.74-.75,1.26-1.71,1.58-2.85.31-1.12.34-2.19.08-3.21s-.74-1.89-1.44-2.63-1.6-1.25-2.7-1.56-2.14-.33-3.14-.06c-.99.26-1.86.77-2.59,1.51-.73.74-1.25,1.68-1.56,2.8-.32,1.15-.36,2.24-.11,3.26.24,1.03.72,1.92,1.43,2.67.71.75,1.62,1.28,2.72,1.58Z"/>
        </g>
      </g>
      <g class="cls-1">
        <g class="cls-1">
          <path class="cls-2" d="M183.59,37.65l7.15-16.58,3.14,1.35-7.15,16.58-3.14-1.35ZM193.73,18.44c-.58-.25-.98-.65-1.18-1.19-.21-.54-.19-1.11.07-1.69.24-.56.63-.95,1.17-1.17.54-.22,1.1-.21,1.68.04.58.25.98.65,1.18,1.19.21.54.19,1.1-.05,1.65-.25.58-.65.98-1.18,1.21s-1.1.21-1.68-.04Z"/>
        </g>
      </g>
      <g class="cls-1">
        <g class="cls-1">
          <path class="cls-2" d="M192.54,41.51l9.29-15.47,2.93,1.76-9.29,15.47-2.93-1.76ZM203.49,48.09l5.42-9.02c.7-1.17.91-2.36.63-3.56-.28-1.2-1.01-2.16-2.18-2.86-.78-.47-1.58-.71-2.4-.73-.82-.02-1.58.17-2.29.57-.71.4-1.3.99-1.77,1.77l-.79-1.41c.7-1.17,1.59-2.06,2.66-2.66,1.07-.6,2.23-.88,3.48-.86,1.25.03,2.47.4,3.64,1.1,1.17.71,2.03,1.62,2.58,2.75.55,1.13.8,2.32.75,3.58-.05,1.26-.39,2.42-1.03,3.48l-5.77,9.61-2.93-1.76Z"/>
        </g>
      </g>
      <g class="cls-1">
        <g class="cls-1">
          <path class="cls-2" d="M220.2,61.46l17.9-18.31,2.45,2.39-17.9,18.31-2.45-2.39ZM227.46,47.67l2.18-2.23,8.8,8.61-2.18,2.23-8.8-8.61Z"/>
        </g>
      </g>
      <g class="cls-1">
        <g class="cls-1">
          <path class="cls-2" d="M228.85,70.21l21.72-16.26,2.05,2.74-21.72,16.26-2.05-2.74ZM236.51,80.43l8.43-6.31c1.09-.82,1.74-1.84,1.93-3.06.19-1.22-.12-2.38-.94-3.47-.55-.73-1.2-1.26-1.95-1.58s-1.53-.44-2.34-.34c-.81.1-1.58.42-2.31.97l-.2-1.6c1.1-.82,2.25-1.31,3.47-1.46,1.22-.15,2.4.02,3.55.52,1.15.5,2.13,1.3,2.95,2.39s1.3,2.25,1.45,3.45c.14,1.21-.04,2.38-.55,3.52-.51,1.14-1.33,2.13-2.46,2.98l-8.97,6.72-2.05-2.74Z"/>
        </g>
      </g>
      <g class="cls-1">
        <g class="cls-1">
          <path class="cls-2" d="M244.85,95.62c-.8-1.61-1.16-3.24-1.07-4.9.09-1.66.59-3.18,1.48-4.56.9-1.38,2.15-2.47,3.76-3.28,1.59-.79,3.2-1.14,4.84-1.03,1.64.1,3.14.6,4.5,1.49,1.36.89,2.44,2.12,3.22,3.68.75,1.5,1.07,2.99.96,4.47-.11,1.48-.6,2.85-1.48,4.09-.88,1.25-2.08,2.25-3.6,3-.23.11-.48.22-.75.33-.27.11-.59.21-.97.31l-6.8-13.64,2.55-1.27,5.99,12-1.55-.63c1.09-.54,1.92-1.2,2.48-1.96.57-.76.88-1.6.95-2.51.07-.91-.15-1.87-.64-2.86-.52-1.04-1.21-1.85-2.05-2.42-.85-.57-1.79-.86-2.82-.89s-2.1.24-3.21.8c-1.13.57-2.01,1.29-2.64,2.16s-.96,1.85-1,2.92c-.05,1.07.2,2.15.74,3.24.45.91,1.03,1.66,1.72,2.26.7.6,1.5,1.01,2.4,1.24l-1.02,2.97c-1.29-.32-2.45-.92-3.49-1.8s-1.87-1.96-2.5-3.23Z"/>
        </g>
      </g>
      <g class="cls-1">
        <g class="cls-1">
          <path class="cls-2" d="M254.69,124.56c-.37-1.73-.3-3.39.22-4.96.52-1.57,1.39-2.91,2.62-4.02,1.23-1.1,2.7-1.84,4.41-2.2,1.73-.37,3.38-.3,4.94.21,1.56.51,2.89,1.38,4,2.61,1.1,1.23,1.84,2.71,2.21,4.44.29,1.36.31,2.68.05,3.95-.26,1.27-.78,2.43-1.57,3.48l-2.7-1.75c.53-.68.88-1.45,1.04-2.3.17-.85.15-1.75-.05-2.69-.24-1.12-.7-2.05-1.4-2.81s-1.54-1.29-2.54-1.6c-1-.3-2.08-.33-3.24-.08-1.17.25-2.14.71-2.93,1.4-.79.69-1.35,1.52-1.68,2.5-.33.98-.38,2.02-.15,3.14.2.94.55,1.77,1.05,2.48.5.71,1.13,1.28,1.9,1.71l-1.76,2.67c-1.12-.62-2.06-1.46-2.83-2.52-.77-1.07-1.3-2.28-1.59-3.64Z"/>
        </g>
      </g>
      <g class="cls-1">
        <g class="cls-1">
          <path class="cls-2" d="M256.93,143.55c-.07-1.77.29-3.38,1.07-4.83.78-1.45,1.87-2.62,3.27-3.51,1.4-.89,2.98-1.37,4.76-1.43,1.75-.07,3.34.29,4.77,1.07,1.44.78,2.6,1.87,3.49,3.25.89,1.39,1.37,2.97,1.43,4.74.07,1.75-.29,3.35-1.05,4.81-.77,1.46-1.85,2.64-3.23,3.52-1.39.89-2.95,1.37-4.7,1.43-1.77.07-3.39-.29-4.85-1.07-1.46-.78-2.64-1.87-3.53-3.27-.89-1.4-1.37-2.97-1.43-4.72ZM260.23,143.43c.04,1.14.35,2.14.91,3.01.56.87,1.32,1.53,2.26,2.01.94.47,2.01.69,3.2.64,1.16-.04,2.19-.34,3.08-.9.89-.55,1.58-1.28,2.07-2.17.49-.89.71-1.91.67-3.05s-.34-2.14-.89-3.01c-.55-.87-1.29-1.54-2.22-2.01-.93-.47-1.98-.69-3.14-.64-1.19.04-2.24.34-3.14.88-.91.54-1.61,1.26-2.11,2.17-.5.91-.73,1.93-.68,3.07Z"/>
        </g>
      </g>
      <g class="cls-1">
        <g class="cls-1">
          <path class="cls-2" d="M253.16,181.49l10.71,2.08c1.32.26,2.43.05,3.35-.61.91-.66,1.49-1.59,1.72-2.78.16-.82.13-1.59-.09-2.32-.22-.73-.6-1.35-1.15-1.87-.54-.52-1.25-.86-2.12-1.03l1.04-1.77c1.35.34,2.46.94,3.31,1.79.85.85,1.46,1.85,1.82,3s.41,2.35.17,3.6c-.25,1.29-.75,2.4-1.49,3.31s-1.67,1.58-2.79,2c-1.11.42-2.37.49-3.76.22l-11.38-2.21.66-3.39ZM255.49,169.52l10.71,2.08c1.32.26,2.43.05,3.35-.61.92-.66,1.49-1.6,1.73-2.82.16-.82.13-1.59-.1-2.3-.22-.71-.61-1.33-1.15-1.85-.54-.52-1.25-.86-2.12-1.03l.94-1.25c1.34.26,2.46.78,3.34,1.56.88.78,1.5,1.73,1.86,2.86.36,1.13.42,2.33.17,3.59-.24,1.24-.73,2.32-1.48,3.22-.74.9-1.67,1.55-2.78,1.94-1.11.39-2.35.45-3.71.19l-11.42-2.22.65-3.36ZM257.81,157.54l17.72,3.44-.65,3.36-17.72-3.44.65-3.36Z"/>
        </g>
      </g>
      <g class="cls-1">
        <g class="cls-1">
          <path class="cls-2" d="M239.78,211.48l9.73,4.92c1.2.61,2.33.71,3.39.33,1.06-.39,1.87-1.12,2.42-2.21.38-.75.56-1.5.55-2.26-.01-.76-.21-1.46-.59-2.11-.38-.65-.97-1.17-1.76-1.57l1.48-1.42c1.21.7,2.11,1.57,2.7,2.62.59,1.05.9,2.18.93,3.39s-.24,2.38-.81,3.51c-.59,1.17-1.38,2.1-2.34,2.78-.97.68-2.04,1.06-3.22,1.16-1.18.1-2.41-.18-3.68-.82l-10.34-5.23,1.56-3.09ZM245.28,200.6l9.73,4.92c1.2.61,2.33.71,3.39.33,1.06-.39,1.87-1.13,2.43-2.24.38-.75.56-1.49.54-2.24-.02-.75-.22-1.45-.6-2.09-.38-.65-.97-1.17-1.76-1.57l1.25-.95c1.22.62,2.15,1.42,2.79,2.41.63.99.97,2.07,1.01,3.26.04,1.18-.23,2.35-.82,3.5-.57,1.13-1.34,2.03-2.3,2.69-.96.66-2.03,1.03-3.2,1.11s-2.38-.2-3.62-.83l-10.38-5.25,1.54-3.05ZM250.79,189.71l16.11,8.15-1.54,3.05-16.11-8.15,1.54-3.05Z"/>
        </g>
      </g>
      <g class="cls-1">
        <g class="cls-1">
          <path class="cls-2" d="M229.7,224.02c.95-1.15,2.06-1.97,3.33-2.45,1.27-.48,2.57-.59,3.91-.34,1.34.25,2.61.88,3.82,1.88l8.08,6.69-2.18,2.63-7.96-6.59c-.76-.63-1.53-1.04-2.3-1.24-.78-.2-1.52-.16-2.23.1s-1.35.74-1.92,1.42c-.86,1.03-1.2,2.11-1.03,3.24.17,1.13.83,2.17,1.98,3.12l7.96,6.59-2.18,2.63-8.08-6.69c-1.21-1-2.06-2.14-2.56-3.4-.5-1.27-.64-2.56-.42-3.87.22-1.32.81-2.56,1.78-3.73Z"/>
        </g>
      </g>
      <g class="cls-1">
        <g class="cls-1">
          <path class="cls-2" d="M211.41,242.45l6.81,8.03c.88,1.04,1.94,1.62,3.17,1.74,1.23.12,2.37-.26,3.41-1.15.7-.59,1.18-1.27,1.46-2.04.28-.77.34-1.55.19-2.36-.15-.8-.52-1.55-1.11-2.25l1.59-.3c.88,1.04,1.44,2.17,1.66,3.37.22,1.21.12,2.4-.31,3.58-.43,1.18-1.17,2.21-2.21,3.09-1.04.88-2.19,1.41-3.43,1.57-1.25.16-2.46.01-3.63-.43-1.18-.45-2.17-1.14-2.97-2.09l-7.25-8.55,2.61-2.21ZM221.15,234.2l11.67,13.77-2.61,2.21-11.67-13.77,2.61-2.21Z"/>
        </g>
      </g>
      <g class="cls-1">
        <g class="cls-1">
          <path class="cls-2" d="M203.78,247.84l9.75,15.19-2.88,1.85-9.75-15.19,2.88-1.85ZM214.04,266.99c.53-.34,1.08-.45,1.65-.31.57.13,1.02.47,1.36,1,.33.51.43,1.05.32,1.62-.12.57-.44,1.03-.97,1.37-.53.34-1.08.45-1.65.31s-1.02-.46-1.34-.97c-.34-.53-.46-1.09-.34-1.66s.44-1.03.97-1.37Z"/>
        </g>
      </g>
      <g class="cls-1">
        <g class="cls-1">
          <path class="cls-2" d="M192.87,254.25l11.47,22.9-3.06,1.53-11.47-22.9,3.06-1.53ZM203.53,265.61l1.4,2.79-11.01,5.51-1.4-2.79,11.01-5.51Z"/>
        </g>
      </g>
      <g class="cls-1">
        <g class="cls-1">
          <path class="cls-2" d="M176.04,261.24l13.07,14.89-3.61,1.17-9.93-11.76,1.16-.38-1.42,15.44-3.61,1.17,2.4-19.92,1.95-.63ZM178.67,252.6l-1.69,12.01-2.89-2.74.96-8.1,3.61-1.17Z"/>
        </g>
      </g>
      <g class="cls-1">
        <g class="cls-1">
          <path class="cls-2" d="M150.74,261.97l3.3,33.81-3.1.3-3.3-33.81,3.1-.3Z"/>
        </g>
      </g>
      <g class="cls-1">
        <g class="cls-1">
          <path class="cls-2" d="M126.75,266.72c1.51.16,2.81.59,3.89,1.31,1.08.71,1.94,1.61,2.56,2.7l-2.74,2.04c-.4-.76-.95-1.36-1.62-1.81-.68-.45-1.46-.73-2.34-.82-.88-.09-1.68.02-2.4.32s-1.31.81-1.78,1.51c-.47.7-.76,1.6-.87,2.68l-1.91,18.22-3.55-.37,1.89-18.03c.18-1.74.69-3.21,1.51-4.43.83-1.21,1.88-2.11,3.15-2.69,1.27-.58,2.67-.79,4.21-.63Z"/>
        </g>
      </g>
      <g class="cls-1">
        <g class="cls-1">
          <path class="cls-2" d="M104.71,262.55c1.7.49,3.12,1.34,4.25,2.54,1.13,1.2,1.9,2.6,2.3,4.21.41,1.61.36,3.26-.13,4.97-.49,1.68-1.33,3.08-2.52,4.2-1.19,1.12-2.59,1.88-4.18,2.29-1.59.41-3.24.37-4.95-.13-1.68-.49-3.09-1.32-4.24-2.51-1.15-1.19-1.92-2.58-2.33-4.18-.41-1.6-.37-3.23.12-4.91.49-1.7,1.34-3.13,2.54-4.27,1.2-1.14,2.61-1.92,4.21-2.32s3.25-.36,4.93.12ZM103.79,265.72c-1.1-.32-2.14-.34-3.14-.08-1,.26-1.87.77-2.61,1.52-.74.75-1.28,1.69-1.61,2.84-.32,1.12-.36,2.19-.12,3.21.25,1.02.72,1.9,1.41,2.64.7.74,1.59,1.27,2.69,1.59,1.1.32,2.14.35,3.14.1,1-.25,1.86-.75,2.6-1.48.74-.74,1.27-1.66,1.6-2.78.33-1.14.38-2.23.15-3.26-.23-1.03-.7-1.92-1.4-2.68s-1.6-1.29-2.7-1.61Z"/>
        </g>
      </g>
      <g class="cls-1">
        <g class="cls-1">
          <path class="cls-2" d="M80.57,277.14c.58.26.97.66,1.17,1.21.2.55.17,1.11-.08,1.69-.25.55-.64.94-1.18,1.16-.54.22-1.1.2-1.68-.06-.58-.26-.97-.66-1.17-1.21-.2-.55-.18-1.1.07-1.65.26-.58.66-.98,1.2-1.19.54-.22,1.1-.2,1.68.06ZM90.93,258.05l-7.34,16.49-3.12-1.39,7.34-16.49,3.12,1.39Z"/>
        </g>
      </g>
      <g class="cls-1">
        <g class="cls-1">
          <path class="cls-2" d="M71.16,247.38l-5.52,8.96c-.72,1.16-.94,2.35-.67,3.56.27,1.21.98,2.17,2.15,2.89.78.48,1.57.73,2.39.76.82.03,1.58-.15,2.3-.55.72-.39,1.31-.98,1.79-1.75l.78,1.42c-.72,1.16-1.61,2.04-2.69,2.63-1.08.59-2.24.86-3.49.82-1.25-.04-2.46-.42-3.63-1.14-1.16-.72-2.02-1.64-2.55-2.78-.54-1.13-.77-2.33-.71-3.59.06-1.26.42-2.41,1.07-3.47l5.88-9.54,2.91,1.79ZM82.03,254.08l-9.47,15.37-2.91-1.79,9.47-15.37,2.91,1.79Z"/>
        </g>
      </g>
      <g class="cls-1">
        <g class="cls-1">
          <path class="cls-2" d="M54.6,233.82l-18.11,18.11-2.42-2.42,18.11-18.11,2.42,2.42ZM47.18,247.52l-2.2,2.2-8.71-8.71,2.2-2.2,8.71,8.71Z"/>
        </g>
      </g>
      <g class="cls-1">
        <g class="cls-1">
          <path class="cls-2" d="M46.02,224.95l-21.9,16.01-2.02-2.76,21.9-16.01,2.02,2.76ZM38.48,214.64l-8.5,6.21c-1.1.81-1.76,1.82-1.97,3.04-.21,1.22.09,2.38.9,3.48.54.74,1.18,1.27,1.93,1.61.75.33,1.53.45,2.34.36.81-.09,1.59-.41,2.32-.94l.19,1.61c-1.1.81-2.27,1.28-3.48,1.42-1.22.14-2.4-.05-3.54-.56-1.14-.51-2.12-1.32-2.93-2.43-.81-1.11-1.28-2.26-1.41-3.47-.13-1.21.07-2.38.59-3.51.52-1.13,1.35-2.12,2.5-2.96l9.05-6.62,2.02,2.76Z"/>
        </g>
      </g>
      <g class="cls-1">
        <g class="cls-1">
          <path class="cls-2" d="M30.32,199.37c.79,1.62,1.12,3.26,1.01,4.92-.11,1.66-.62,3.17-1.54,4.54-.91,1.37-2.18,2.45-3.8,3.23-1.6.77-3.21,1.1-4.85.98-1.63-.12-3.13-.64-4.48-1.54-1.35-.91-2.41-2.15-3.17-3.72-.73-1.5-1.03-3-.91-4.48.13-1.48.64-2.84,1.53-4.08.89-1.24,2.1-2.22,3.63-2.96.23-.11.48-.22.75-.32.27-.1.6-.21.97-.3l6.64,13.71-2.56,1.24-5.85-12.07,1.54.65c-1.09.53-1.93,1.17-2.51,1.93s-.9,1.59-.98,2.5c-.08.91.12,1.87.61,2.87.51,1.05,1.18,1.86,2.03,2.44s1.78.88,2.81.92c1.03.04,2.1-.22,3.22-.76,1.14-.55,2.03-1.26,2.66-2.13.63-.87.98-1.84,1.04-2.91s-.18-2.15-.71-3.25c-.44-.91-1.01-1.67-1.7-2.28-.69-.61-1.49-1.03-2.39-1.27l1.06-2.96c1.29.33,2.44.95,3.47,1.84,1.03.9,1.85,1.98,2.46,3.26Z"/>
        </g>
      </g>
      <g class="cls-1">
        <g class="cls-1">
          <path class="cls-2" d="M20.83,170.32c.35,1.74.26,3.39-.28,4.96-.54,1.57-1.43,2.9-2.67,3.99-1.24,1.09-2.72,1.81-4.43,2.15-1.74.35-3.38.26-4.94-.26-1.55-.53-2.88-1.41-3.96-2.65-1.09-1.24-1.81-2.73-2.16-4.47-.28-1.37-.28-2.68,0-3.95s.81-2.42,1.61-3.46l2.68,1.78c-.54.68-.89,1.44-1.07,2.29-.18.85-.17,1.75.02,2.69.22,1.12.68,2.06,1.36,2.83s1.52,1.31,2.52,1.62c.99.32,2.08.36,3.24.12,1.17-.24,2.15-.69,2.94-1.37.79-.68,1.36-1.5,1.71-2.48.34-.97.41-2.02.18-3.14-.19-.94-.53-1.77-1.03-2.49s-1.12-1.29-1.88-1.73l1.79-2.65c1.11.63,2.04,1.48,2.8,2.56.76,1.08,1.28,2.3,1.55,3.66Z"/>
        </g>
      </g>
      <g class="cls-1">
        <g class="cls-1">
          <path class="cls-2" d="M18.81,151.3c.05,1.77-.33,3.38-1.13,4.82-.8,1.44-1.9,2.6-3.31,3.47-1.41.87-3,1.33-4.77,1.38-1.75.05-3.33-.33-4.76-1.13-1.43-.8-2.58-1.9-3.45-3.29-.87-1.4-1.33-2.98-1.38-4.75-.05-1.75.32-3.35,1.11-4.8.79-1.45,1.88-2.62,3.27-3.49,1.4-.87,2.97-1.33,4.71-1.38,1.77-.05,3.39.33,4.84,1.13,1.45.8,2.62,1.9,3.49,3.31.87,1.41,1.33,2.99,1.38,4.73ZM15.5,151.39c-.03-1.14-.32-2.15-.88-3.02-.56-.87-1.3-1.55-2.24-2.03-.94-.48-2-.71-3.19-.68-1.16.03-2.2.32-3.09.86-.9.54-1.59,1.26-2.09,2.15-.5.89-.73,1.9-.7,3.04.03,1.14.32,2.15.86,3.02.54.87,1.28,1.55,2.2,2.03.92.48,1.97.71,3.13.68,1.19-.03,2.24-.31,3.15-.84.91-.53,1.62-1.25,2.13-2.15.51-.9.75-1.92.72-3.06Z"/>
        </g>
      </g>
      <g class="cls-1">
        <g class="cls-1">
          <path class="cls-2" d="M18.08,137.3l-17.68-3.64.69-3.35,17.68,3.65-.69,3.35ZM20.54,125.35l-10.68-2.2c-1.31-.27-2.43-.08-3.36.57-.92.65-1.51,1.58-1.76,2.8-.17.82-.15,1.59.07,2.3.22.72.59,1.34,1.13,1.86s1.24.88,2.11,1.06l-.95,1.24c-1.34-.28-2.45-.81-3.32-1.6-.87-.79-1.48-1.75-1.83-2.88-.35-1.13-.39-2.33-.13-3.6.26-1.24.76-2.31,1.51-3.2.75-.89,1.69-1.53,2.8-1.91,1.11-.38,2.35-.43,3.72-.15l11.39,2.35-.69,3.35ZM23,113.4l-10.68-2.2c-1.31-.27-2.43-.08-3.36.57-.92.65-1.51,1.57-1.75,2.76-.17.82-.15,1.59.06,2.32.21.73.59,1.36,1.13,1.88.54.52,1.24.88,2.11,1.06l-1.06,1.76c-1.35-.35-2.45-.96-3.29-1.82-.85-.86-1.44-1.87-1.78-3.03-.34-1.16-.39-2.36-.13-3.6.27-1.29.78-2.39,1.53-3.29.76-.9,1.69-1.56,2.81-1.96,1.12-.4,2.37-.46,3.76-.17l11.35,2.34-.7,3.39Z"/>
        </g>
      </g>
      <g class="cls-1">
        <g class="cls-1">
          <path class="cls-2" d="M25.47,105.23l-16.01-8.33,1.58-3.03,16.01,8.33-1.58,3.03ZM31.1,94.41l-9.68-5.03c-1.19-.62-2.32-.74-3.38-.37-1.07.37-1.89,1.11-2.46,2.21-.39.74-.57,1.49-.56,2.23.01.75.2,1.45.58,2.1.37.65.96,1.18,1.74,1.59l-1.25.93c-1.21-.63-2.13-1.44-2.76-2.44-.62-1-.95-2.09-.98-3.27-.03-1.18.26-2.35.86-3.5.58-1.12,1.36-2.01,2.33-2.67.97-.65,2.04-1.01,3.21-1.07,1.17-.06,2.38.23,3.62.87l10.32,5.37-1.58,3.03ZM36.72,83.58l-9.68-5.03c-1.19-.62-2.32-.74-3.38-.37s-1.88,1.1-2.44,2.18c-.39.74-.58,1.49-.57,2.25,0,.76.19,1.47.57,2.12.37.65.96,1.18,1.74,1.59l-1.5,1.4c-1.2-.71-2.09-1.59-2.67-2.65-.58-1.06-.87-2.19-.89-3.4-.01-1.21.27-2.37.86-3.5.61-1.17,1.4-2.08,2.37-2.75.97-.66,2.05-1.04,3.24-1.12,1.19-.08,2.41.2,3.67.86l10.28,5.35-1.6,3.07Z"/>
        </g>
      </g>
      <g class="cls-1">
        <g class="cls-1">
          <path class="cls-2" d="M46.96,71.16c-.97,1.14-2.09,1.94-3.36,2.41s-2.58.56-3.91.3c-1.33-.27-2.6-.91-3.8-1.92l-8-6.78,2.21-2.61,7.89,6.68c.75.64,1.52,1.06,2.29,1.27.77.21,1.52.18,2.23-.08.72-.26,1.36-.72,1.93-1.4.87-1.02,1.22-2.1,1.07-3.23-.16-1.13-.8-2.18-1.95-3.14l-7.89-6.68,2.21-2.61,8,6.78c1.2,1.02,2.04,2.16,2.52,3.43.48,1.27.61,2.57.38,3.88s-.84,2.55-1.82,3.71Z"/>
        </g>
      </g>
      <g class="cls-1">
        <g class="cls-1">
          <path class="cls-2" d="M55.61,61.08l-11.52-13.9,2.63-2.18,11.52,13.9-2.63,2.18ZM65.44,52.94l-6.71-8.11c-.87-1.05-1.92-1.65-3.15-1.78-1.23-.13-2.37.24-3.42,1.11-.7.58-1.2,1.26-1.48,2.02-.29.76-.36,1.55-.22,2.35.14.81.5,1.56,1.08,2.26l-1.59.28c-.87-1.05-1.41-2.18-1.62-3.39-.21-1.21-.09-2.4.35-3.57.44-1.17,1.19-2.2,2.24-3.07,1.05-.87,2.2-1.38,3.45-1.53,1.25-.14,2.45.02,3.63.48,1.17.46,2.15,1.17,2.94,2.12l7.15,8.63-2.63,2.18Z"/>
        </g>
      </g>
      <g class="cls-1">
        <g class="cls-1">
          <path class="cls-2" d="M63.09,28.37c-.54.34-1.09.43-1.65.3-.56-.14-1.02-.48-1.35-1.01-.32-.51-.42-1.06-.3-1.63.12-.57.45-1.02.99-1.36.54-.34,1.09-.43,1.65-.29.57.14,1.01.47,1.33.98.34.54.44,1.09.32,1.66s-.45,1.02-.99,1.36ZM73.13,47.64l-9.58-15.3,2.9-1.81,9.58,15.3-2.9,1.81Z"/>
        </g>
      </g>
      <g class="cls-1">
        <g class="cls-1">
          <path class="cls-2" d="M73.6,29.86l-1.36-2.8,11.07-5.39,1.36,2.8-11.07,5.39ZM84.13,41.34l-11.2-23.03,3.08-1.5,11.2,23.03-3.08,1.5Z"/>
        </g>
      </g>
      <g class="cls-1">
        <g class="cls-1">
          <path class="cls-2" d="M101.04,34.56l-12.89-15.05,3.63-1.13,9.79,11.87-1.16.36,1.6-15.43,3.63-1.13-2.63,19.89-1.96.61ZM98.31,43.17l1.83-12,2.85,2.77-1.06,8.09-3.63,1.13Z"/>
        </g>
      </g>
      <g class="cls-1">
        <g class="cls-1">
          <path class="cls-2" d="M126.36,34.12L123.44.27l3.1-.27,2.92,33.85-3.1.27Z"/>
        </g>
      </g>
    </g>
  </g>
</svg>