<svg width="32" height="32" viewBox="0 0 32 32" fill="none" xmlns="http://www.w3.org/2000/svg">
<path d="M16 3.19922C8.9312 3.19922 3.2 8.93042 3.2 15.9992C3.2 21.9971 7.33013 27.0158 12.8981 28.4046C12.8384 28.2318 12.8 28.0312 12.8 27.7827V25.595C12.2805 25.595 11.4101 25.595 11.1915 25.595C10.3157 25.595 9.53707 25.2184 9.15947 24.5187C8.74027 23.7411 8.66773 22.5518 7.6288 21.8243C7.32053 21.5822 7.5552 21.3059 7.9104 21.3432C8.5664 21.5288 9.1104 21.979 9.6224 22.6467C10.1323 23.3155 10.3723 23.467 11.3248 23.467C11.7867 23.467 12.4779 23.4403 13.1285 23.3379C13.4784 22.4494 14.0832 21.6312 14.8224 21.2451C10.56 20.8067 8.52587 18.6862 8.52587 15.8072C8.52587 14.5678 9.05387 13.3688 9.95093 12.3587C9.65653 11.356 9.2864 9.31122 10.064 8.53255C11.9819 8.53255 13.1413 9.77629 13.4197 10.1123C14.3755 9.78482 15.4251 9.59922 16.528 9.59922C17.6331 9.59922 18.6869 9.78482 19.6448 10.1144C19.92 9.78055 21.0805 8.53255 23.0027 8.53255C23.7835 9.31229 23.4091 11.3656 23.1115 12.3662C24.0032 13.3742 24.528 14.5699 24.528 15.8072C24.528 18.684 22.4971 20.8035 18.2411 21.244C19.4123 21.8552 20.2667 23.5726 20.2667 24.8664V27.7827C20.2667 27.8936 20.2421 27.9736 20.2293 28.0686C25.2171 26.3203 28.8 21.5843 28.8 15.9992C28.8 8.93042 23.0688 3.19922 16 3.19922Z" fill="#567BFF"/>
</svg>