<svg width="29" height="27" viewBox="0 0 29 27" fill="none" xmlns="http://www.w3.org/2000/svg">
<g clip-path="url(#clip0_256_367)">
<path d="M14.6538 2.42742C18.3841 2.42742 18.8259 2.44321 20.2929 2.5064C21.6563 2.56432 22.3925 2.78547 22.8833 2.96977C23.5323 3.21198 24.0013 3.50685 24.4867 3.97549C24.9775 4.44939 25.2775 4.89696 25.5283 5.52356C25.7192 5.99746 25.9483 6.71357 26.0082 8.02469C26.0737 9.44639 26.0901 9.8729 26.0901 13.4693C26.0901 17.0709 26.0737 17.4974 26.0082 18.9138C25.9483 20.2302 25.7192 20.9411 25.5283 21.415C25.2775 22.0416 24.9721 22.4944 24.4867 22.9631C23.9959 23.4369 23.5323 23.7266 22.8833 23.9688C22.3925 24.1531 21.6508 24.3742 20.2929 24.4321C18.8204 24.4953 18.3787 24.5111 14.6538 24.5111C10.9236 24.5111 10.4818 24.4953 9.01482 24.4321C7.65142 24.3742 6.91519 24.1531 6.42436 23.9688C5.77538 23.7266 5.30637 23.4317 4.821 22.9631C4.33018 22.4892 4.03023 22.0416 3.77937 21.415C3.58849 20.9411 3.35944 20.225 3.29945 18.9138C3.23401 17.4921 3.21764 17.0656 3.21764 13.4693C3.21764 9.86763 3.23401 9.44112 3.29945 8.02469C3.35944 6.70831 3.58849 5.99746 3.77937 5.52356C4.03023 4.89696 4.33563 4.44412 4.821 3.97549C5.31183 3.50159 5.77538 3.21198 6.42436 2.96977C6.91519 2.78547 7.65688 2.56432 9.01482 2.5064C10.4818 2.44321 10.9236 2.42742 14.6538 2.42742ZM14.6538 0C10.8636 0 10.3891 0.0157966 8.9003 0.0789832C7.41692 0.14217 6.3971 0.373854 5.51361 0.705583C4.59195 1.05311 3.81209 1.51121 3.03768 2.26419C2.25781 3.01189 1.78335 3.76487 1.42341 4.64948C1.07983 5.50776 0.839874 6.48715 0.774431 7.91938C0.708988 9.36214 0.692627 9.82024 0.692627 13.4798C0.692627 17.1394 0.708988 17.5975 0.774431 19.035C0.839874 20.4672 1.07983 21.4518 1.42341 22.3049C1.78335 23.1947 2.25781 23.9477 3.03768 24.6954C3.81209 25.4431 4.59195 25.9065 5.50816 26.2488C6.3971 26.5805 7.41146 26.8122 8.89485 26.8753C10.3837 26.9385 10.8581 26.9543 14.6484 26.9543C18.4386 26.9543 18.9131 26.9385 20.4019 26.8753C21.8853 26.8122 22.9051 26.5805 23.7886 26.2488C24.7048 25.9065 25.4847 25.4431 26.2591 24.6954C27.0335 23.9477 27.5134 23.1947 27.8679 22.3101C28.2115 21.4518 28.4515 20.4724 28.5169 19.0402C28.5823 17.6027 28.5987 17.1446 28.5987 13.4851C28.5987 9.82551 28.5823 9.36741 28.5169 7.92991C28.4515 6.49768 28.2115 5.51303 27.8679 4.66001C27.5243 3.76487 27.0499 3.01189 26.27 2.26419C25.4956 1.51648 24.7157 1.05311 23.7995 0.710849C22.9106 0.379119 21.8962 0.147435 20.4129 0.0842488C18.9186 0.0157966 18.4441 0 14.6538 0Z" fill="#567BFF"/>
<path d="M14.6538 6.55469C10.6945 6.55469 7.4823 9.65609 7.4823 13.4789C7.4823 17.3017 10.6945 20.4031 14.6538 20.4031C18.6131 20.4031 21.8253 17.3017 21.8253 13.4789C21.8253 9.65609 18.6131 6.55469 14.6538 6.55469ZM14.6538 17.9704C12.0851 17.9704 10.0019 15.959 10.0019 13.4789C10.0019 10.9988 12.0851 8.98737 14.6538 8.98737C17.2224 8.98737 19.3057 10.9988 19.3057 13.4789C19.3057 15.959 17.2224 17.9704 14.6538 17.9704Z" fill="#567BFF"/>
<path d="M23.7832 6.28254C23.7832 7.17768 23.0306 7.89907 22.1089 7.89907C21.1818 7.89907 20.4347 7.17242 20.4347 6.28254C20.4347 5.3874 21.1873 4.66602 22.1089 4.66602C23.0306 4.66602 23.7832 5.39266 23.7832 6.28254Z" fill="#567BFF"/>
</g>
<defs>
<clipPath id="clip0_256_367">
<rect width="27.9224" height="26.9596" fill="white" transform="translate(0.692627)"/>
</clipPath>
</defs>
</svg>