<svg width="27" height="27" viewBox="0 0 27 27" fill="none" xmlns="http://www.w3.org/2000/svg">
<g clip-path="url(#clip0_256_368)">
<path d="M24.765 0H2.61192C1.55072 0 0.692627 0.868815 0.692627 1.94299V25.0113C0.692627 26.0855 1.55072 26.9596 2.61192 26.9596H24.765C25.8262 26.9596 26.6894 26.0855 26.6894 25.0166V1.94299C26.6894 0.868815 25.8262 0 24.765 0ZM8.40534 22.9736H4.54644V10.1046H8.40534V22.9736ZM6.47589 8.35116C5.23698 8.35116 4.23672 7.31384 4.23672 6.03432C4.23672 4.75479 5.23698 3.71748 6.47589 3.71748C7.70972 3.71748 8.70999 4.75479 8.70999 6.03432C8.70999 7.30858 7.70972 8.35116 6.47589 8.35116ZM22.8457 22.9736H18.9919V16.7181C18.9919 15.228 18.9665 13.306 16.9863 13.306C14.9807 13.306 14.676 14.9331 14.676 16.6128V22.9736H10.8273V10.1046H14.5237V11.8633H14.5745C15.0873 10.8523 16.3465 9.78339 18.2201 9.78339C22.1247 9.78339 22.8457 12.4478 22.8457 15.9125V22.9736Z" fill="#567BFF"/>
</g>
<defs>
<clipPath id="clip0_256_368">
<rect width="25.9968" height="26.9596" fill="white" transform="translate(0.692627)"/>
</clipPath>
</defs>
</svg>
