<svg width="48" height="35" viewBox="0 0 48 35" fill="none" xmlns="http://www.w3.org/2000/svg">
<path d="M18.0971 2.21094C16.0043 2.21094 12.6435 2.35788 12.6435 5.37097C12.6435 7.44846 8.18586 5.98701 7.62109 8.1929C7.44622 8.87594 7.81919 9.99005 7.81919 10.7547C7.81919 11.6424 6.24142 11.6481 5.72166 11.9381C5.03262 12.3226 3.11145 13.0254 3.72899 14.2659C4.00942 14.8292 5.02211 16.1592 4.13685 16.7237C3.36815 17.2139 2.51029 17.4663 1.73633 17.9461C0.609771 18.6445 0.987028 19.4687 1.47997 20.4689C1.88926 21.2994 3.40802 21.9549 3.158 22.8617C2.84367 24.0017 1.6363 24.9495 2.20245 26.0868C2.68836 27.0628 4.21404 26.2075 4.83603 27.0751C5.4325 27.9071 2.80053 29.8026 4.62627 30.5862C5.1794 30.8236 5.64347 31.0024 6.24604 31.0024C6.50389 31.0024 7.40439 30.6435 7.56283 30.8203C7.84402 31.1341 7.54159 31.863 7.92407 32.2898C8.30438 32.7142 8.92232 32.8143 9.28747 32.4068" stroke="#567BFF" stroke-width="1.76896" stroke-linecap="round" stroke-linejoin="round"/>
<path d="M18.7264 1.97815C20.9075 1.13368 23.2048 0.393956 25.322 1.74407C25.7622 2.02481 24.9147 2.7973 25.555 2.66737C27.2051 2.33257 28.6746 1.97815 30.3794 1.97815C32.6179 1.97815 29.5847 4.27095 31.7544 4.53999C33.2843 4.72968 34.7136 5.16961 36.2175 5.4893C37.4972 5.76132 37.6476 6.76024 37.6042 8.11616C37.5648 9.34801 37.3324 9.50843 38.653 9.4686C39.793 9.43422 40.889 9.13616 41.473 10.626C41.9201 11.7665 40.8578 12.6377 40.6573 13.682C40.4501 14.7613 41.8634 14.6388 42.3353 15.0864C43.1484 15.8577 43.2655 17.2284 43.0112 18.3635C42.7795 19.3979 42.41 19.2906 43.3725 19.768C44.1397 20.1485 43.2441 21.7226 42.9646 22.2128C42.613 22.8294 42.592 24.1881 42.4286 24.9177" stroke="#567BFF" stroke-width="1.76896" stroke-linecap="round" stroke-linejoin="round"/>
<path d="M11.8047 17.1934C10.8053 17.4382 10.2655 17.6849 9.96355 18.7799C9.81303 19.3258 9.483 20.1484 10.0335 20.4834C10.8093 20.9557 11.4406 21.7154 12.2126 22.2C12.6208 22.4563 13.0008 22.109 12.6437 22.109" stroke="#567BFF" stroke-width="1.76896" stroke-linecap="round" stroke-linejoin="round"/>
<path d="M12.8532 20.7051C13.4463 24.097 13.7618 27.1894 15.58 30.1202C16.2894 31.2637 17.7631 31.8544 18.8894 32.2269C19.6615 32.4821 20.4526 32.3893 21.2433 32.591C21.961 32.774 22.5766 32.9323 23.2943 32.695C24.0186 32.4555 24.8778 32.6165 25.6016 32.3569C26.2223 32.1342 26.7655 31.6199 27.3262 31.2905C28.4083 30.655 29.4271 30.0002 30.4725 29.3139C31.1062 28.8979 32.122 27.5662 32.1505 26.7391C32.1774 25.9609 32.5701 23.6716 32.5701 24.4503" stroke="#567BFF" stroke-width="1.76896" stroke-linecap="round" stroke-linejoin="round"/>
<path d="M30.2629 13.4473C29.8108 14.9924 29.2658 18.1704 30.799 18.9481C31.7136 19.412 32.1523 19.3703 31.7312 20.8077C31.552 21.4195 30.4321 23.3624 31.2068 23.7466C31.7831 24.0325 32.5135 23.9174 32.9897 24.4489C33.509 25.0284 32.871 25.9433 32.6751 26.5556C31.961 28.7869 35.5832 25.7937 35.2854 27.6219C35.2173 28.04 34.4747 29.2024 35.1106 29.4685C35.9863 29.835 37.0822 28.7376 37.8607 28.4802C38.3368 28.3228 38.1224 29.2223 38.8745 29.1174C39.7056 29.0015 40.4976 28.4795 41.1235 27.908C41.7473 27.3385 42.6611 27.4736 43.3143 26.9197C43.954 26.3771 44.236 24.9758 44.095 24.1108C44.0012 23.5348 43.2677 23.6155 43.2677 24.2148" stroke="#567BFF" stroke-width="1.76896" stroke-linecap="round" stroke-linejoin="round"/>
<path d="M17.678 9.23438C17.3722 10.1513 16.7894 12.4854 18.4121 12.4854C19.2523 12.4854 20.8591 10.7607 21.5584 11.6012C22.4046 12.6181 22.7706 13.2368 24.1337 12.6935C24.9482 12.3689 25.1781 11.8092 26.1147 11.8092C26.8522 11.8092 27.4195 11.5742 27.7461 12.3944C28.1045 13.2943 28.8595 12.8266 29.529 12.9926C30.0822 13.1298 30.3492 13.7159 30.8458 13.1617C31.054 12.9293 32.2531 13.6818 31.5217 13.6818" stroke="#567BFF" stroke-width="1.76896" stroke-linecap="round" stroke-linejoin="round"/>
<path d="M17.678 11.5742C16.3575 11.8617 16.1467 12.3467 15.2658 13.3298C14.76 13.8942 14.4402 15.9753 13.6926 16.0217C12.7782 16.0784 12.3899 16.6535 12.2127 17.5432C12.0352 18.4345 10.9986 17.7334 11.1756 18.1284" stroke="#567BFF" stroke-width="1.76896" stroke-linecap="round" stroke-linejoin="round"/>
<path d="M9.49759 32.4087C9.64479 33.1388 10.7561 35.0177 10.7561 33.293C10.7561 32.819 10.7618 31.9602 11.0824 31.6024C11.4678 31.1724 12.1745 31.7677 12.539 31.2253C13.1439 30.3253 13.3416 29.834 13.4713 28.6765C13.547 28.0004 13.6629 28.6709 13.9024 29.0796C14.4385 29.9946 13.484 28.4306 13.2732 28.1953" stroke="#567BFF" stroke-width="1.76896" stroke-linecap="round" stroke-linejoin="round"/>
<path d="M17.4677 7.5957C17.0767 8.6479 16.6949 9.46832 15.5799 9.46832C14.755 9.46832 14.1357 10.0068 14.1116 10.9768C14.0792 12.2778 14.4978 12.6065 13.2726 12.7584C12.6008 12.8417 11.377 13.3738 11.6412 14.3319C11.7607 14.7653 12.2965 15.4471 11.8975 15.8924C11.4756 16.3632 9.91995 15.327 9.49702 15.1382C8.66009 14.7646 9.46849 17.0207 9.49702 17.1798C9.64495 18.0053 9.90149 18.5157 8.91437 18.5973C6.16058 18.8249 7.25561 21.8277 9.28726 22.3946C10.112 22.6246 9.65556 22.7641 9.18239 23.1748C8.28516 23.9536 9.06086 25.3253 10.0331 25.3855C10.5055 25.4148 11.3902 25.1319 11.1517 25.9967C11.0118 26.5041 9.91197 28.0645 10.5458 28.4805C11.0855 28.8348 11.9908 29.5718 11.9908 30.3662C11.9908 31.2236 11.2355 28.864 10.7555 28.1945" stroke="#567BFF" stroke-width="1.76896" stroke-linecap="round" stroke-linejoin="round"/>
<path d="M16.2093 6.89296C14.9791 6.3572 13.9428 5.68072 12.6318 6.32077C11.2968 6.97255 11.8034 8.26716 12.1307 9.57184C12.4409 10.808 12.8931 10.8723 11.5714 10.8723C10.8157 10.8723 8.72028 10.3736 8.87956 11.7956C8.93419 12.2833 10.5412 14.1493 9.8118 14.1493C8.92992 14.1493 7.94045 13.523 7.09665 13.6942C6.08886 13.8987 7.32714 16.4021 7.38797 16.9453C7.52239 18.1453 6.19744 17.4615 5.5235 17.7905C1.95596 19.5323 7.70071 21.0718 7.23649 22.1079C6.92424 22.8048 5.09234 22.3849 5.09234 23.0963C5.09234 24.4099 6.18378 24.7325 6.98012 25.203C7.53812 25.5326 5.66747 27.3827 5.55846 27.8558C5.30597 28.9516 7.88924 29.0496 8.4484 29.3123C9.23893 29.6838 8.1501 30.809 8.28526 31.7571C8.44672 32.8897 8.59114 33.0066 9.49717 33.3436" stroke="#567BFF" stroke-width="1.76896" stroke-linecap="round" stroke-linejoin="round"/>
<path d="M18.0973 6.89453C17.9522 7.86577 17.8661 8.77155 18.6799 9.36534C19.594 10.0323 21.1202 7.94201 21.6514 7.38869C23.1053 5.87445 22.1059 9.11818 22.1059 9.88551C22.1059 11.7199 24.6893 9.10158 25.1124 8.76715C26.31 7.82048 27.2915 8.01021 26.6506 9.75547C26.5498 10.0299 25.9935 10.8915 26.2078 11.1989C26.5273 11.6575 27.8109 11.1981 28.1655 11.0949C28.8757 10.8882 31.5873 9.20389 31.2651 10.8218C30.9919 12.194 30.1823 12.896 31.8595 13.3186C32.5788 13.4999 35.1123 12.9788 35.3787 13.9298C35.6095 14.7544 33.5805 16.5787 34.1318 17.1939C34.58 17.6941 36.0683 17.0178 36.2992 17.6621C36.5575 18.3825 34.8383 20.8782 34.5863 21.6284C34.2305 22.6871 34.5472 23.0002 35.4253 22.5647C37.0056 21.7809 37.7695 22.746 36.7187 24.3983C36.4896 24.7586 34.3103 26.7696 35.6467 26.531C36.5747 26.3653 38.2736 25.3533 38.0239 27.0251" stroke="#567BFF" stroke-width="1.76896" stroke-linecap="round" stroke-linejoin="round"/>
<path d="M16.2094 5.95714C15.9939 4.72473 15.8911 4.44589 16.9435 4.08453C17.2734 3.97126 18.3462 3.25472 18.6798 3.66839C18.9117 3.95592 18.7264 5.222 18.7264 5.59302C18.7264 6.84202 21.0991 5.89799 21.5581 5.72307C22.0085 5.55143 25.1082 3.82246 25.1356 4.89079C25.1666 6.10271 23.7656 7.01576 23.8537 8.24589C23.95 9.58836 33.7432 4.70861 31.3 8.66203C28.2175 13.6499 36.6674 8.07181 36.0078 11.4579C35.7202 12.9342 35.7546 13.3663 37.278 13.6297C39.3632 13.9902 39.8408 14.9699 38.9094 17.0888C38.2669 18.5503 38.6547 18.0937 39.5736 18.9614C40.3077 19.6545 39.1149 21.2885 38.9793 22.0954C38.8347 22.9561 39.8383 23.1895 39.4454 24.2671C39.3183 24.6159 38.6297 25.5568 38.6297 25.8797C38.6297 26.3333 39.2046 25.2381 39.4921 24.9174" stroke="#567BFF" stroke-width="1.76896" stroke-linecap="round" stroke-linejoin="round"/>
<path d="M21.4533 3.14844C23.9177 4.19614 27.002 3.59787 29.622 3.86367C30.4656 3.94925 30.2466 5.28106 30.263 5.95736C30.2982 7.41276 31.5335 7.5959 32.6052 7.5959C33.7503 7.5959 35.3618 7.26346 36.4507 7.73894C37.3621 8.13693 37.3919 9.28963 38.1171 9.88465C39.688 11.1737 41.0863 11.9496 40.5409 14.3841" stroke="#567BFF" stroke-width="1.76896" stroke-linecap="round" stroke-linejoin="round"/>
<path d="M18.5166 18.1289C18.5167 18.1289 18.5167 18.1289 18.5167 18.1289" stroke="#567BFF" stroke-width="1.76896" stroke-linecap="round" stroke-linejoin="round"/>
<path d="M25.7032 18.1289C25.7032 18.1289 25.7033 18.1289 25.7033 18.1289" stroke="#567BFF" stroke-width="1.76896" stroke-linecap="round" stroke-linejoin="round"/>
<path d="M14.741 16.2572C16.4016 14.8533 17.3062 15.0868 19.1458 15.0868" stroke="#567BFF" stroke-width="1.76896" stroke-linecap="round" stroke-linejoin="round"/>
<path d="M25.2289 15.0859C26.055 15.2364 26.9792 15.7183 27.7926 15.7882C28.418 15.8419 28.7161 16.0222 27.9557 16.0222" stroke="#567BFF" stroke-width="1.76896" stroke-linecap="round" stroke-linejoin="round"/>
<path d="M21.2433 19.0664C21.527 19.8975 21.7077 20.5046 21.4064 21.3031C21.3245 21.5202 20.7744 22.6532 20.9519 22.8116C21.4383 23.2459 23.3344 23.5139 22.7115 23.5139" stroke="#567BFF" stroke-width="1.76896" stroke-linecap="round" stroke-linejoin="round"/>
<path d="M19.3561 27.2576C19.948 26.9998 21.539 26.3819 22.0829 27.1406C22.2594 27.3868 23.3784 26.5554 23.7609 26.5554C24.1141 26.5554 24.2467 26.7894 24.5999 26.7894C25.0161 26.7894 25.3286 26.5554 25.7536 26.5554C26.2756 26.5554 27.2938 25.6374 26.9072 25.8531" stroke="#567BFF" stroke-width="1.76896" stroke-linecap="round" stroke-linejoin="round"/>
<path d="M20.8242 29.6004C21.7349 29.997 23.0114 30.5407 23.8074 29.6524C24.0837 29.344 24.3681 29.2608 24.6464 28.9502C24.7807 28.8004 25.229 28.2261 25.229 28.43" stroke="#567BFF" stroke-width="1.76896" stroke-linecap="round" stroke-linejoin="round"/>
</svg>
