<svg width="28" height="27" viewBox="0 0 28 27" fill="none" xmlns="http://www.w3.org/2000/svg">
<g clip-path="url(#clip0_256_366)">
<path d="M8.78835 24.4328C18.9593 24.4328 24.5239 16.0043 24.5239 8.69727C24.5239 8.46032 24.5186 8.2181 24.5081 7.98115C25.5906 7.19831 26.5248 6.22866 27.2667 5.11775C26.2586 5.56629 25.1882 5.85923 24.0921 5.98656C25.2462 5.29479 26.1103 4.20806 26.5243 2.92781C25.4386 3.57123 24.2513 4.02511 23.0132 4.26999C22.179 3.38364 21.0761 2.79677 19.875 2.60012C18.6738 2.40346 17.4413 2.60798 16.368 3.18205C15.2947 3.75611 14.4405 4.66775 13.9373 5.77603C13.4341 6.8843 13.31 8.12747 13.5842 9.31333C11.3858 9.20302 9.23518 8.63194 7.27167 7.63712C5.30816 6.64231 3.57564 5.24596 2.1864 3.53861C1.48032 4.75598 1.26426 6.19652 1.58213 7.56747C1.9 8.93841 2.72795 10.1369 3.89771 10.9193C3.01952 10.8914 2.16057 10.655 1.39183 10.2295V10.298C1.39104 11.5755 1.8327 12.8139 2.64173 13.8026C3.45075 14.7914 4.57722 15.4694 5.82963 15.7215C5.01613 15.9441 4.16233 15.9765 3.33429 15.8163C3.6877 16.915 4.3753 17.8759 5.30114 18.565C6.22697 19.2541 7.34484 19.6369 8.49874 19.6601C6.53977 21.1989 4.11986 22.0336 1.62878 22.0296C1.18701 22.029 0.745671 22.0019 0.307129 21.9485C2.8378 23.5721 5.78165 24.4344 8.78835 24.4328Z" fill="#567BFF"/>
</g>
<defs>
<clipPath id="clip0_256_366">
<rect width="26.9596" height="26.9596" fill="white" transform="translate(0.307129)"/>
</clipPath>
</defs>
</svg>