<svg width="104" height="85" viewBox="0 0 104 85" fill="none" xmlns="http://www.w3.org/2000/svg">
<path d="M37.4116 45.827C37.2611 45.7668 37.103 45.6539 36.9374 45.4883C36.7869 45.3227 36.6966 45.1797 36.6665 45.0593C36.5912 44.7582 36.5084 44.3894 36.4181 43.9528C36.3277 43.5162 36.2374 43.0495 36.1471 42.5528C36.0568 42.056 35.9664 41.5517 35.8761 41.0398C35.8008 40.5129 35.7256 40.0162 35.6503 39.5495C35.575 39.0678 35.5148 38.6387 35.4697 38.2624C35.4245 37.886 35.3944 37.5849 35.3793 37.3591C35.3793 37.1183 35.4621 36.9828 35.6277 36.9527C36.0191 36.9075 36.2976 37.0505 36.4632 37.3817C36.5385 37.6527 36.6213 37.9613 36.7116 38.3075C36.8019 38.6538 36.8923 39.0301 36.9826 39.4366C37.3439 39.3011 37.6675 39.128 37.9536 38.9172C38.2396 38.7065 38.4729 38.4807 38.6536 38.2398C38.8493 37.9839 38.9848 37.728 39.06 37.472C39.1504 37.2011 39.1654 36.9376 39.1052 36.6817C39.0299 36.3957 38.8192 36.1849 38.4729 36.0494C38.1267 35.9139 37.7353 35.8462 37.2987 35.8462C36.6966 35.8462 36.1546 35.9591 35.6729 36.1849C35.2062 36.3957 34.7772 36.6591 34.3858 36.9753C34.2051 37.1107 34.0094 37.1559 33.7987 37.1107C33.5729 37.0505 33.4223 36.9075 33.347 36.6817C33.347 36.4709 33.3847 36.2903 33.4599 36.1398C33.5352 35.9892 33.6331 35.8537 33.7535 35.7333C34.2202 35.2516 34.7696 34.9129 35.4019 34.7172C36.0492 34.5214 36.7267 34.4236 37.4342 34.4236C38.0063 34.4236 38.5557 34.5139 39.0826 34.6946C39.6246 34.8752 40.0837 35.1989 40.4601 35.6656C40.6407 35.9666 40.731 36.2828 40.731 36.614C40.7461 36.9451 40.7009 37.2688 40.5955 37.5849C40.4902 37.9011 40.3396 38.2022 40.1439 38.4882C39.9633 38.7742 39.7751 39.0226 39.5794 39.2334C39.9558 39.2032 40.3396 39.2409 40.731 39.3463C41.1224 39.4366 41.4687 39.6022 41.7698 39.843C42.0859 40.0689 42.3418 40.3699 42.5375 40.7463C42.7332 41.1226 42.8311 41.5743 42.8311 42.1011C42.8311 42.7033 42.6956 43.2528 42.4246 43.7496C42.1687 44.2463 41.8225 44.6679 41.3859 45.0141C40.9644 45.3603 40.4751 45.6313 39.9181 45.827C39.3762 46.0227 38.8116 46.1206 38.2245 46.1206C37.9686 46.1206 37.7654 46.0453 37.6149 45.8948C37.5396 45.8948 37.4718 45.8722 37.4116 45.827ZM37.3213 41.085C37.4417 41.6721 37.5546 42.2818 37.66 42.9141C37.7654 43.5463 37.8783 44.1786 37.9987 44.8109H38.0891C38.4202 44.8109 38.7815 44.7506 39.1729 44.6302C39.5794 44.5098 39.9558 44.3367 40.302 44.1109C40.6482 43.87 40.9343 43.584 41.1601 43.2528C41.3859 42.9065 41.4913 42.5227 41.4762 42.1011C41.4009 41.7248 41.2278 41.4388 40.9568 41.2431C40.6859 41.0474 40.3547 40.9194 39.9633 40.8592C39.5869 40.799 39.1654 40.799 38.6987 40.8592C38.2471 40.9043 37.788 40.9796 37.3213 41.085ZM48.4546 45.6238C48.3794 45.8797 48.2815 46.113 48.1611 46.3238C48.0406 46.5195 47.9127 46.6324 47.7772 46.6625C47.4912 46.7378 47.2729 46.6926 47.1223 46.527C46.9718 46.3614 46.9116 46.1507 46.9417 45.8948C47.0621 44.9915 47.2578 44.0431 47.5288 43.0495C47.7998 42.0409 48.1159 41.0398 48.4772 40.0463C48.8385 39.0377 49.2299 38.0667 49.6514 37.1333C50.088 36.1849 50.5321 35.3268 50.9837 34.5591C51.059 34.4387 51.1418 34.3709 51.2321 34.3559C51.3375 34.3257 51.4278 34.3257 51.5031 34.3559C51.5783 34.2956 51.6687 34.243 51.774 34.1978C51.8794 34.1526 51.9848 34.13 52.0902 34.13C52.1353 34.13 52.1805 34.1376 52.2257 34.1526C52.2859 34.1677 52.3461 34.2128 52.4063 34.2881C52.4665 34.3634 52.5343 34.4763 52.6095 34.6268C52.6999 34.7623 52.8052 34.9655 52.9257 35.2365C53.1364 36.0043 53.3773 36.7946 53.6483 37.6075C53.9343 38.4204 54.2278 39.2334 54.5289 40.0463C54.5741 40.0312 54.6117 40.0237 54.6418 40.0237C54.687 40.0086 54.7321 39.9936 54.7773 39.9785C54.9429 39.9635 55.1311 39.971 55.3418 40.0011C55.5526 40.0312 55.6956 40.1366 55.7709 40.3172C55.8612 40.5431 55.8461 40.7388 55.7257 40.9044C55.6053 41.0699 55.387 41.2355 55.0709 41.4011C55.2666 41.8829 55.4623 42.3571 55.658 42.8237C55.8537 43.2754 56.0569 43.7194 56.2677 44.156C56.2827 44.2313 56.3053 44.3517 56.3354 44.5173C56.3655 44.6679 56.3806 44.8259 56.3806 44.9915C56.3956 45.1421 56.3881 45.2851 56.358 45.4206C56.3279 45.556 56.2677 45.6464 56.1773 45.6915C56.072 45.7367 55.959 45.7292 55.8386 45.6689C55.7332 45.6087 55.6279 45.5335 55.5225 45.4431C55.4171 45.3378 55.3193 45.2324 55.2289 45.127C55.1537 45.0066 55.0934 44.9012 55.0483 44.8109C54.7924 44.3141 54.544 43.8173 54.3031 43.3205C54.0773 42.8087 53.859 42.2968 53.6483 41.785C53.016 41.9054 52.3235 42.0108 51.5708 42.1011C50.8332 42.1915 50.103 42.2517 49.3804 42.2818C49.2149 42.8538 49.0493 43.4184 48.8837 43.9754C48.7331 44.5173 48.5901 45.0668 48.4546 45.6238ZM51.6611 36.1398C50.9686 37.6903 50.3665 39.2409 49.8546 40.7914C50.8633 40.7613 51.9396 40.6334 53.0837 40.4076C52.5418 39.0377 52.0676 37.615 51.6611 36.1398ZM65.6831 37.3365C65.7433 37.4118 65.7734 37.5097 65.7734 37.6301C65.7884 37.7355 65.7734 37.8258 65.7282 37.9011C65.6529 38.0667 65.525 38.1269 65.3443 38.0817C65.0282 38.0065 64.697 37.9763 64.3508 37.9914C64.0045 38.0065 63.6583 38.1419 63.3121 38.3979C62.9658 38.6538 62.6948 39.0301 62.4991 39.5269C62.3034 40.0086 62.2056 40.5129 62.2056 41.0398C62.2056 41.5517 62.326 41.9958 62.5669 42.3721C62.8228 42.7334 63.1465 42.9969 63.5379 43.1625C63.7787 43.2678 64.0497 43.328 64.3508 43.3431C64.6519 43.3582 64.9529 43.3506 65.254 43.3205C65.5702 43.2754 65.8788 43.2151 66.1798 43.1399C66.4809 43.0495 66.7669 42.9517 67.0379 42.8463C67.1282 42.8162 67.211 42.8237 67.2863 42.8689C67.3766 42.9141 67.4369 42.9743 67.467 43.0495C67.5422 43.2452 67.5046 43.441 67.3541 43.6367C67.1734 43.8324 66.9325 44.0055 66.6315 44.156C66.3304 44.3066 65.9992 44.427 65.6379 44.5173C65.2766 44.6076 64.9078 44.6603 64.5314 44.6754C64.1551 44.6754 63.8013 44.6302 63.4701 44.5399C63.0034 44.4195 62.6045 44.2463 62.2733 44.0205C61.9572 43.7797 61.6937 43.5087 61.483 43.2076C61.2722 42.8915 61.1142 42.5603 61.0088 42.214C60.9034 41.8528 60.8432 41.4839 60.8281 41.1076C60.798 40.2043 60.9712 39.3914 61.3475 38.6688C61.7389 37.9462 62.2809 37.4118 62.9733 37.0656C63.4852 36.8097 63.997 36.7118 64.5088 36.772C65.0357 36.8172 65.4271 37.0054 65.6831 37.3365ZM73.1517 36.0043C73.227 36.5161 73.3098 37.0505 73.4001 37.6075C73.4904 38.1495 73.5808 38.7366 73.6711 39.3688C74.3636 38.9323 75.0862 38.4957 75.8389 38.0591C76.6066 37.6075 77.3217 37.2462 77.9841 36.9753C78.0443 36.9602 78.1196 36.9602 78.2099 36.9753C78.3153 36.9753 78.4206 36.9978 78.526 37.043C78.6314 37.0731 78.7217 37.1183 78.797 37.1785C78.8723 37.2387 78.9249 37.314 78.955 37.4043C78.9852 37.5097 78.9626 37.6527 78.8873 37.8333C78.812 37.9989 78.7292 38.0968 78.6389 38.1269C78.4583 38.2323 78.2174 38.3753 77.9163 38.5559C77.6303 38.7215 77.3217 38.9022 76.9905 39.0979C76.6744 39.2936 76.3582 39.4893 76.0421 39.685C75.741 39.8807 75.4851 40.0463 75.2743 40.1818C76.1324 40.6484 76.9679 41.0474 77.7808 41.3786C78.6088 41.7097 79.4819 41.9807 80.4002 42.1915C80.4906 42.2065 80.5809 42.2667 80.6712 42.3721C80.7766 42.4624 80.8594 42.5753 80.9196 42.7108C80.9798 42.8463 81.0099 42.9818 81.0099 43.1173C81.025 43.2528 80.9949 43.3732 80.9196 43.4786C80.8293 43.599 80.7013 43.6743 80.5357 43.7044C80.3852 43.7194 80.2271 43.7119 80.0615 43.6818C78.9174 43.4108 77.8712 43.0797 76.9228 42.6883C75.9744 42.2818 74.9808 41.7925 73.9421 41.2205C74.0173 41.8678 74.0851 42.5377 74.1453 43.2302C74.2206 43.9227 74.2883 44.6528 74.3485 45.4206C74.3485 45.5861 74.2808 45.684 74.1453 45.7141C74.0098 45.7292 73.8593 45.7216 73.6937 45.6915C73.5281 45.6614 73.3775 45.6087 73.2421 45.5335C73.1066 45.4582 73.0238 45.3829 72.9937 45.3076C72.9033 44.6152 72.8055 43.885 72.7001 43.1173C72.6098 42.3495 72.5044 41.5743 72.384 40.7914C72.2635 39.9936 72.1356 39.2108 72.0001 38.443C71.8646 37.6602 71.7291 36.915 71.5936 36.2075C71.5635 36.0419 71.6012 35.8537 71.7065 35.643C71.8119 35.4172 72.0076 35.2892 72.2936 35.2591C72.399 35.2591 72.4969 35.2892 72.5872 35.3494C72.6926 35.3946 72.7829 35.4623 72.8582 35.5526C72.9485 35.6279 73.0162 35.7107 73.0614 35.801C73.1066 35.8763 73.1367 35.9441 73.1517 36.0043Z" fill="#567BFF"/>
<path d="M23.5139 31.4763C23.7972 29.5471 24.1377 27.653 24.3176 25.7574C24.3842 25.1172 24.6125 24.1347 23.8873 23.7937C23.4007 23.6668 22.6194 24.2419 22.0878 24.5888C15.9547 28.6035 10.3717 33.136 5.86471 38.6069C3.74119 41.179 3.74548 41.8479 6.05177 44.119C10.9115 48.9179 16.3809 53.0362 22.5224 56.4598C22.7861 56.5994 24.6469 57.4289 24.8519 56.754C24.6959 54.2852 24.5519 51.951 24.3896 49.5008C25.9488 49.5536 27.4171 49.6028 28.8854 49.6521C45.1548 50.1843 61.3958 51.0734 77.369 54.1183C81.1321 54.8371 84.8888 55.5746 88.6518 56.2934C90.509 56.6566 91.0503 56.3831 91.2611 54.5664C91.6263 51.4748 91.9279 48.3666 92.0764 45.2691C92.2657 41.4031 92.252 37.5247 92.3155 33.6563C92.3491 31.9553 91.5562 30.9289 89.5583 30.5391C74.911 27.6581 60.1615 26.1364 45.195 28.1193C38.0033 29.0654 30.893 30.3161 23.5139 31.4763ZM21.5889 27.8378C21.0693 29.2399 20.4935 30.6376 20.0933 32.0609C19.7348 33.2927 20.6128 34.1693 22.0519 33.9985C23.7064 33.8029 25.377 33.6622 27.0367 33.4174C46.6266 30.5264 66.2493 29.6168 85.9082 32.9962C86.6675 33.1336 87.4394 33.2338 87.91 33.306C87.9947 40.1774 88.0702 46.8036 88.1445 53.3991C83.8428 52.4689 79.7207 51.4843 75.5345 50.6551C58.15 47.2217 40.5032 46.6436 22.7574 47.1425C21.2577 47.1863 20.7188 47.8955 20.8663 49.0266C21.0573 50.5738 21.6305 53.9204 21.6305 53.9204C16.4459 49.9472 11.0959 45.85 5.8541 41.8416C5.78203 41.7824 5.76368 41.6663 5.82369 41.5909C10.6006 36.241 15.5174 31.6358 21.4746 27.7674C21.5294 27.7413 21.5941 27.7885 21.5889 27.8378Z" fill="#567BFF"/>
</svg>
