<svg width="104" height="85" viewBox="0 0 104 85" fill="none" xmlns="http://www.w3.org/2000/svg">
<path d="M31.7689 36.3656C31.6635 37.6452 31.5355 38.9549 31.385 40.2947C31.2495 41.6194 31.0613 42.8689 30.8205 44.0431C30.7602 44.3291 30.6775 44.5324 30.5721 44.6528C30.4667 44.7732 30.3162 44.856 30.1205 44.9012C29.9549 44.9313 29.7215 44.8786 29.4204 44.7431C29.1344 44.6076 28.8936 44.4119 28.6978 44.156C28.4419 43.8098 28.1634 43.4334 27.8624 43.027C27.5763 42.6055 27.2602 42.1839 26.9139 41.7624C26.5828 41.3259 26.229 40.8968 25.8526 40.4753C25.4913 40.0538 25.1075 39.6624 24.701 39.3011C24.6558 40.2947 24.6182 41.2807 24.5881 42.2592C24.558 43.2227 24.558 44.1937 24.5881 45.1722C24.5881 45.3076 24.4677 45.3754 24.2268 45.3754C23.9408 45.3754 23.7074 45.2324 23.5268 44.9464C23.3461 44.6453 23.2408 44.3442 23.2107 44.0431C23.1655 43.742 23.1429 43.313 23.1429 42.756C23.1429 42.1839 23.1504 41.5893 23.1655 40.9721C23.1956 40.3549 23.2257 39.7602 23.2558 39.1882C23.2859 38.6161 23.316 38.1645 23.3461 37.8333C23.3763 37.472 23.4591 37.2086 23.5945 37.043C23.7451 36.8774 23.8881 36.8021 24.0236 36.8172C24.3247 36.8473 24.5204 36.9376 24.6107 37.0882C24.7161 37.2236 24.7763 37.3968 24.7913 37.6075C25.3333 37.9989 25.8301 38.4204 26.2817 38.8721C26.7484 39.3237 27.1699 39.7828 27.5462 40.2495C27.9376 40.7162 28.2914 41.1828 28.6075 41.6495C28.9387 42.1011 29.2473 42.5151 29.5333 42.8915C29.714 41.9882 29.857 40.9796 29.9624 39.8656C30.0828 38.7516 30.2033 37.5849 30.3237 36.3656C30.3086 36.215 30.399 36.072 30.5947 35.9365C30.7904 35.786 30.971 35.7182 31.1366 35.7333C31.5581 35.7634 31.7689 35.9742 31.7689 36.3656ZM43.2612 40.0011C43.3214 40.1516 43.2612 40.3022 43.0805 40.4527C42.8999 40.5882 42.6139 40.6785 42.2225 40.7237C41.545 40.814 40.8526 40.9119 40.145 41.0173C39.4375 41.1076 38.7149 41.2054 37.9772 41.3108C37.9471 42.0786 37.9471 42.8463 37.9772 43.6141C38.3235 43.6141 38.7375 43.584 39.2192 43.5237C39.716 43.4485 40.2203 43.3582 40.7321 43.2528C41.244 43.1474 41.7332 43.042 42.1999 42.9366C42.6816 42.8162 43.0881 42.7184 43.4193 42.6431C43.5849 42.5979 43.758 42.5678 43.9386 42.5528C44.1193 42.5227 44.2773 42.5227 44.4128 42.5528C44.5634 42.5678 44.6838 42.6205 44.7741 42.7108C44.8644 42.8012 44.9096 42.9291 44.9096 43.0947C44.9096 43.1399 44.8569 43.2076 44.7515 43.2979C44.6462 43.3883 44.5107 43.4861 44.3451 43.5915C44.1945 43.6818 44.0289 43.7721 43.8483 43.8625C43.6827 43.9377 43.5322 43.9979 43.3967 44.0431C42.4633 44.3442 41.545 44.6076 40.6418 44.8334C39.7386 45.0442 38.8579 45.1571 37.9998 45.1722C37.503 45.1872 37.1267 45.0593 36.8708 44.7883C36.6148 44.5023 36.4794 44.0958 36.4643 43.5689C36.4342 42.8313 36.4342 42.0861 36.4643 41.3334C36.2084 41.1828 36.0804 40.9721 36.0804 40.7011C36.1105 40.4151 36.246 40.2194 36.4869 40.114C36.517 39.6774 36.5396 39.2409 36.5546 38.8043C36.5697 38.3527 36.5923 37.9086 36.6224 37.472C36.4568 37.4419 36.3062 37.3591 36.1708 37.2236C36.0503 37.0882 35.9901 36.9376 35.9901 36.772C35.9901 36.6365 36.0202 36.5161 36.0804 36.4107C36.1406 36.2903 36.2536 36.2 36.4191 36.1398C36.6901 36.0795 37.0213 36.0118 37.4127 35.9365C37.8041 35.8613 38.203 35.7935 38.6095 35.7333C39.031 35.6731 39.4299 35.6204 39.8063 35.5752C40.1977 35.5301 40.5289 35.5 40.7999 35.4849C41.116 35.4548 41.4171 35.4849 41.7031 35.5752C42.0042 35.6656 42.2827 35.8387 42.5386 36.0946C42.5988 36.3054 42.5537 36.4634 42.4031 36.5688C42.2676 36.6742 42.087 36.7419 41.8612 36.772C41.6354 36.8021 41.3644 36.8398 41.0483 36.8849C40.7321 36.915 40.4009 36.9527 40.0547 36.9978C39.7235 37.043 39.3848 37.0882 39.0385 37.1333C38.7074 37.1634 38.3912 37.2011 38.0901 37.2462C38.0901 37.2763 38.0901 37.314 38.0901 37.3591C38.1052 37.3892 38.1127 37.4193 38.1127 37.4495C38.0826 37.8409 38.06 38.2323 38.045 38.6237C38.0299 39.0151 38.0149 39.4065 37.9998 39.7979C38.6321 39.6925 39.2794 39.6022 39.9418 39.5269C40.6042 39.4366 41.1311 39.3764 41.5225 39.3463C41.8386 39.3162 42.1472 39.3538 42.4483 39.4592C42.7494 39.5645 43.0203 39.7452 43.2612 40.0011ZM57.4456 36.9301C56.9338 37.2763 56.3542 37.728 55.7069 38.285C55.0746 38.8269 54.4348 39.414 53.7875 40.0463C54.2391 40.814 54.6456 41.5366 55.0069 42.214C55.3832 42.8764 55.6768 43.3958 55.8875 43.7721C55.9628 43.9227 55.9703 44.1184 55.9101 44.3592C55.8499 44.6001 55.7294 44.7431 55.5488 44.7883C55.3832 44.8334 55.2026 44.8109 55.0069 44.7205C54.8262 44.6302 54.6982 44.5023 54.623 44.3367C54.3219 43.7947 54.0208 43.2528 53.7197 42.7108C53.4187 42.1538 53.095 41.6044 52.7487 41.0624C52.1466 41.6646 51.6046 42.2291 51.1229 42.756C50.6412 43.2829 50.2724 43.7194 50.0164 44.0657C49.8057 44.3367 49.6025 44.4722 49.4068 44.4722C49.2261 44.4571 49.0756 44.4044 48.9551 44.3141C48.8498 44.2388 48.782 44.1485 48.7519 44.0431C48.7369 43.9227 48.7444 43.8098 48.7745 43.7044C48.8046 43.584 48.8422 43.4711 48.8874 43.3657C48.9476 43.2452 49.0078 43.1399 49.068 43.0495C49.3691 42.6431 49.7681 42.1614 50.2648 41.6044C50.7616 41.0474 51.3261 40.4527 51.9584 39.8205C51.1907 38.6161 50.3552 37.4495 49.4519 36.3204C49.3616 36.1548 49.324 36.0193 49.339 35.9139C49.3691 35.8086 49.4068 35.7333 49.4519 35.6881C49.6627 35.5225 49.8659 35.4623 50.0616 35.5075C50.2724 35.5526 50.4756 35.6354 50.6713 35.7559C51.0476 36.1172 51.4315 36.5688 51.8229 37.1107C52.2294 37.6376 52.6283 38.2022 53.0197 38.8043C53.652 38.2323 54.2993 37.6753 54.9617 37.1333C55.6391 36.5763 56.3165 36.0795 56.994 35.643C57.1445 35.5526 57.3176 35.5451 57.5133 35.6204C57.7241 35.6957 57.8596 35.8161 57.9198 35.9817C57.98 36.1623 57.9499 36.343 57.8295 36.5236C57.7241 36.6892 57.5961 36.8247 57.4456 36.9301ZM71.8971 36.614C70.3465 36.5387 68.8562 36.6591 67.4261 36.9753C65.9959 37.2914 64.5808 37.7204 63.1808 38.2624C62.8195 38.3979 62.541 38.3828 62.3453 38.2172C62.1647 38.0516 62.0744 37.886 62.0744 37.7204C62.1797 37.4344 62.3679 37.2011 62.6389 37.0204C65.725 35.515 68.811 34.958 71.8971 35.3494C72.0476 35.3946 72.1681 35.5075 72.2584 35.6881C72.3638 35.8537 72.4014 35.9967 72.3713 36.1172C72.3412 36.2677 72.296 36.3957 72.2358 36.5011C72.1756 36.5914 72.0627 36.629 71.8971 36.614ZM68.6906 44.4947C68.6906 44.6603 68.6304 44.8109 68.5099 44.9464C68.4046 45.0668 68.2691 45.1421 68.1035 45.1722C67.8024 45.2173 67.6067 45.1646 67.5164 45.0141C67.4261 44.8636 67.3734 44.6904 67.3583 44.4947C67.3433 43.441 67.3207 42.3947 67.2906 41.356C67.2755 40.3022 67.2304 39.2484 67.1551 38.1946C67.1551 38.1344 67.1476 38.0667 67.1325 37.9914C67.1174 37.9011 67.1174 37.8183 67.1325 37.743C67.1476 37.6527 67.1777 37.5774 67.2228 37.5172C67.283 37.457 67.3734 37.4118 67.4938 37.3817C67.84 37.3215 68.0884 37.3817 68.239 37.5624C68.3895 37.728 68.4648 37.8935 68.4648 38.0591C68.5852 39.143 68.6605 40.2194 68.6906 41.2882C68.7207 42.3571 68.7207 43.4259 68.6906 44.4947Z" fill="#567BFF"/>
<path d="M79.7053 31.4763C79.422 29.5471 79.0815 27.653 78.9016 25.7574C78.835 25.1172 78.6067 24.1347 79.3319 23.7937C79.8185 23.6668 80.5998 24.2419 81.1314 24.5888C87.2646 28.6035 92.8475 33.136 97.3545 38.6069C99.478 41.179 99.4737 41.8479 97.1674 44.119C92.3078 48.9179 86.8383 53.0362 80.6968 56.4598C80.4331 56.5994 78.5723 57.4289 78.3673 56.754C78.5233 54.2852 78.6673 51.951 78.8296 49.5008C77.2704 49.5536 75.8021 49.6028 74.3338 49.6521C58.0644 50.1843 41.8234 51.0734 25.8502 54.1183C22.0872 54.8371 18.3305 55.5746 14.5675 56.2934C12.7102 56.6566 12.1689 56.3831 11.9582 54.5664C11.593 51.4748 11.2913 48.3666 11.1429 45.2691C10.9536 41.4031 10.9673 37.5247 10.9038 33.6563C10.8702 31.9553 11.6631 30.9289 13.661 30.5391C28.3082 27.6581 43.0578 26.1364 58.0242 28.1193C65.2159 29.0654 72.3262 30.3161 79.7053 31.4763ZM81.6303 27.8378C82.15 29.2399 82.7257 30.6376 83.1259 32.0609C83.4844 33.2927 82.6064 34.1693 81.1673 33.9985C79.5128 33.8029 77.8422 33.6622 76.1825 33.4174C56.5927 30.5264 36.97 29.6168 17.3111 32.9962C16.5518 33.1336 15.7798 33.2338 15.3093 33.306C15.2245 40.1774 15.149 46.8036 15.0747 53.3991C19.3764 52.4689 23.4986 51.4843 27.6847 50.6551C45.0692 47.2217 62.716 46.6436 80.4618 47.1425C81.9615 47.1863 82.5004 47.8955 82.3529 49.0266C82.1619 50.5738 81.5887 53.9204 81.5887 53.9204C86.7733 49.9472 92.1233 45.85 97.3651 41.8416C97.4372 41.7824 97.4555 41.6663 97.3955 41.5909C92.6186 36.241 87.7018 31.6358 81.7447 27.7674C81.6898 27.7413 81.6252 27.7885 81.6303 27.8378Z" fill="#567BFF"/>
</svg>
